<svg xmlns="http://www.w3.org/2000/svg" width="502" height="482" viewBox="0 0 502 482">
<rect width="502" height="482" fill="white"/>
<g id="symbols">
<g transform="translate(55.5,29.5)"><circle cx="0" cy="0" r="4.6" stroke="#dc5000" stroke-width="1.00" stroke-linecap="round" fill="none"/><circle cx="0" cy="0" r="1.0" fill="#dc5000" stroke="none"/></g>
<g transform="translate(65.0,21.5)"><circle cx="0" cy="0" r="2.9" stroke="#dc5000" stroke-width="1.00" stroke-linecap="round" fill="none"/><circle cx="0" cy="0" r="0.6" fill="#dc5000" stroke="none"/></g>
<g transform="translate(82.5,19.0)"><circle cx="0" cy="0" r="2.5" stroke="#dc5000" stroke-width="1.00" stroke-linecap="round" fill="none"/><circle cx="0" cy="0" r="0.6" fill="#dc5000" stroke="none"/></g>
<g transform="translate(127.0,42.5)"><line x1="0" y1="-23.5" x2="0" y2="23.5" stroke="#00b400" stroke-width="1.00" stroke-linecap="round" fill="none"/><line x1="-6.3" y1="-10.3" x2="6.3" y2="-3.8" stroke="#00b400" stroke-width="1.00" stroke-linecap="round" fill="none"/><line x1="-6.3" y1="2.4"  x2="6.3" y2="8.9"  stroke="#00b400" stroke-width="1.00" stroke-linecap="round" fill="none"/><line x1="-5.6" y1="23.5" x2="5.6" y2="23.5" stroke="#00b400" stroke-width="1.00" stroke-linecap="round" fill="none"/></g>
<g transform="translate(148.5,42.5)"><line x1="0" y1="-23.5" x2="0" y2="23.5" stroke="#00b400" stroke-width="1.00" stroke-linecap="round" fill="none"/><line x1="-5.9" y1="-10.3" x2="5.9" y2="-3.8" stroke="#00b400" stroke-width="1.00" stroke-linecap="round" fill="none"/><line x1="-5.9" y1="2.4"  x2="5.9" y2="8.9"  stroke="#00b400" stroke-width="1.00" stroke-linecap="round" fill="none"/><line x1="-5.2" y1="23.5" x2="5.2" y2="23.5" stroke="#00b400" stroke-width="1.00" stroke-linecap="round" fill="none"/></g>
<g transform="translate(171.0,42.5)"><line x1="0" y1="-23.5" x2="0" y2="23.5" stroke="#00b400" stroke-width="1.00" stroke-linecap="round" fill="none"/><line x1="-6.3" y1="-10.3" x2="6.3" y2="-3.8" stroke="#00b400" stroke-width="1.00" stroke-linecap="round" fill="none"/><line x1="-6.3" y1="2.4"  x2="6.3" y2="8.9"  stroke="#00b400" stroke-width="1.00" stroke-linecap="round" fill="none"/><line x1="-5.6" y1="23.5" x2="5.6" y2="23.5" stroke="#00b400" stroke-width="1.00" stroke-linecap="round" fill="none"/></g>
<g transform="translate(192.0,43.0)"><line x1="0" y1="-24.0" x2="0" y2="24.0" stroke="#00b400" stroke-width="1.00" stroke-linecap="round" fill="none"/><line x1="-5.4" y1="-10.6" x2="5.4" y2="-3.8" stroke="#00b400" stroke-width="1.00" stroke-linecap="round" fill="none"/><line x1="-5.4" y1="2.4"  x2="5.4" y2="9.1"  stroke="#00b400" stroke-width="1.00" stroke-linecap="round" fill="none"/><line x1="-4.8" y1="24.0" x2="4.8" y2="24.0" stroke="#00b400" stroke-width="1.00" stroke-linecap="round" fill="none"/></g>
<g transform="translate(212.5,43.0)"><line x1="0" y1="-23.0" x2="0" y2="23.0" stroke="#00b400" stroke-width="1.00" stroke-linecap="round" fill="none"/><line x1="-5.0" y1="-10.1" x2="5.0" y2="-3.7" stroke="#00b400" stroke-width="1.00" stroke-linecap="round" fill="none"/><line x1="-5.0" y1="2.3"  x2="5.0" y2="8.7"  stroke="#00b400" stroke-width="1.00" stroke-linecap="round" fill="none"/><line x1="-4.4" y1="23.0" x2="4.4" y2="23.0" stroke="#00b400" stroke-width="1.00" stroke-linecap="round" fill="none"/></g>
<g transform="translate(233.5,43.5)"><line x1="0" y1="-23.5" x2="0" y2="23.5" stroke="#00b400" stroke-width="1.00" stroke-linecap="round" fill="none"/><line x1="-5.9" y1="-10.3" x2="5.9" y2="-3.8" stroke="#00b400" stroke-width="1.00" stroke-linecap="round" fill="none"/><line x1="-5.9" y1="2.4"  x2="5.9" y2="8.9"  stroke="#00b400" stroke-width="1.00" stroke-linecap="round" fill="none"/><line x1="-5.2" y1="23.5" x2="5.2" y2="23.5" stroke="#00b400" stroke-width="1.00" stroke-linecap="round" fill="none"/></g>
<g transform="translate(254.5,43.5)"><line x1="0" y1="-23.5" x2="0" y2="23.5" stroke="#00b400" stroke-width="1.00" stroke-linecap="round" fill="none"/><line x1="-5.9" y1="-10.3" x2="5.9" y2="-3.8" stroke="#00b400" stroke-width="1.00" stroke-linecap="round" fill="none"/><line x1="-5.9" y1="2.4"  x2="5.9" y2="8.9"  stroke="#00b400" stroke-width="1.00" stroke-linecap="round" fill="none"/><line x1="-5.2" y1="23.5" x2="5.2" y2="23.5" stroke="#00b400" stroke-width="1.00" stroke-linecap="round" fill="none"/></g>
<g transform="translate(274.5,43.5)"><line x1="0" y1="-23.5" x2="0" y2="23.5" stroke="#00b400" stroke-width="1.00" stroke-linecap="round" fill="none"/><line x1="-5.9" y1="-10.3" x2="5.9" y2="-3.8" stroke="#00b400" stroke-width="1.00" stroke-linecap="round" fill="none"/><line x1="-5.9" y1="2.4"  x2="5.9" y2="8.9"  stroke="#00b400" stroke-width="1.00" stroke-linecap="round" fill="none"/><line x1="-5.2" y1="23.5" x2="5.2" y2="23.5" stroke="#00b400" stroke-width="1.00" stroke-linecap="round" fill="none"/></g>
<g transform="translate(295.5,43.5)"><line x1="0" y1="-23.5" x2="0" y2="23.5" stroke="#00b400" stroke-width="1.05" stroke-linecap="round" fill="none"/><line x1="-6.8" y1="-10.3" x2="6.8" y2="-3.8" stroke="#00b400" stroke-width="1.05" stroke-linecap="round" fill="none"/><line x1="-6.8" y1="2.4"  x2="6.8" y2="8.9"  stroke="#00b400" stroke-width="1.05" stroke-linecap="round" fill="none"/><line x1="-6.0" y1="23.5" x2="6.0" y2="23.5" stroke="#00b400" stroke-width="1.05" stroke-linecap="round" fill="none"/></g>
<g transform="translate(317.0,43.5)"><line x1="0" y1="-23.5" x2="0" y2="23.5" stroke="#00b400" stroke-width="1.00" stroke-linecap="round" fill="none"/><line x1="-6.3" y1="-10.3" x2="6.3" y2="-3.8" stroke="#00b400" stroke-width="1.00" stroke-linecap="round" fill="none"/><line x1="-6.3" y1="2.4"  x2="6.3" y2="8.9"  stroke="#00b400" stroke-width="1.00" stroke-linecap="round" fill="none"/><line x1="-5.6" y1="23.5" x2="5.6" y2="23.5" stroke="#00b400" stroke-width="1.00" stroke-linecap="round" fill="none"/></g>
<g transform="translate(337.5,44.0)"><line x1="0" y1="-23.0" x2="0" y2="23.0" stroke="#00b400" stroke-width="1.05" stroke-linecap="round" fill="none"/><line x1="-6.8" y1="-10.1" x2="6.8" y2="-3.7" stroke="#00b400" stroke-width="1.05" stroke-linecap="round" fill="none"/><line x1="-6.8" y1="2.3"  x2="6.8" y2="8.7"  stroke="#00b400" stroke-width="1.05" stroke-linecap="round" fill="none"/><line x1="-6.0" y1="23.0" x2="6.0" y2="23.0" stroke="#00b400" stroke-width="1.05" stroke-linecap="round" fill="none"/></g>
<g transform="translate(359.0,44.5)"><line x1="0" y1="-23.5" x2="0" y2="23.5" stroke="#00b400" stroke-width="1.00" stroke-linecap="round" fill="none"/><line x1="-6.3" y1="-10.3" x2="6.3" y2="-3.8" stroke="#00b400" stroke-width="1.00" stroke-linecap="round" fill="none"/><line x1="-6.3" y1="2.4"  x2="6.3" y2="8.9"  stroke="#00b400" stroke-width="1.00" stroke-linecap="round" fill="none"/><line x1="-5.6" y1="23.5" x2="5.6" y2="23.5" stroke="#00b400" stroke-width="1.00" stroke-linecap="round" fill="none"/></g>
<g transform="translate(380.5,44.5)"><line x1="0" y1="-23.5" x2="0" y2="23.5" stroke="#00b400" stroke-width="1.00" stroke-linecap="round" fill="none"/><line x1="-5.9" y1="-10.3" x2="5.9" y2="-3.8" stroke="#00b400" stroke-width="1.00" stroke-linecap="round" fill="none"/><line x1="-5.9" y1="2.4"  x2="5.9" y2="8.9"  stroke="#00b400" stroke-width="1.00" stroke-linecap="round" fill="none"/><line x1="-5.2" y1="23.5" x2="5.2" y2="23.5" stroke="#00b400" stroke-width="1.00" stroke-linecap="round" fill="none"/></g>
<g transform="translate(401.0,44.0)"><line x1="0" y1="-23.0" x2="0" y2="23.0" stroke="#00b400" stroke-width="1.00" stroke-linecap="round" fill="none"/><line x1="-6.3" y1="-10.1" x2="6.3" y2="-3.7" stroke="#00b400" stroke-width="1.00" stroke-linecap="round" fill="none"/><line x1="-6.3" y1="2.3"  x2="6.3" y2="8.7"  stroke="#00b400" stroke-width="1.00" stroke-linecap="round" fill="none"/><line x1="-5.6" y1="23.0" x2="5.6" y2="23.0" stroke="#00b400" stroke-width="1.00" stroke-linecap="round" fill="none"/></g>
<g transform="translate(426.0,45.0)"><line x1="0" y1="-25.0" x2="0" y2="25.0" stroke="#00b400" stroke-width="1.54" stroke-linecap="round" fill="none"/><line x1="-9.9" y1="-11.0" x2="9.9" y2="-4.0" stroke="#00b400" stroke-width="1.54" stroke-linecap="round" fill="none"/><line x1="-9.9" y1="2.5"  x2="9.9" y2="9.5"  stroke="#00b400" stroke-width="1.54" stroke-linecap="round" fill="none"/><line x1="-8.8" y1="25.0" x2="8.8" y2="25.0" stroke="#00b400" stroke-width="1.54" stroke-linecap="round" fill="none"/></g>
<g transform="translate(471.0,27.0)"><circle cx="0" cy="0" r="3.4" stroke="#dc5000" stroke-width="1.00" stroke-linecap="round" fill="none"/><circle cx="0" cy="0" r="0.7" fill="#dc5000" stroke="none"/></g>
<g transform="translate(101.0,94.0)"><circle cx="0" cy="0" r="2.5" stroke="#dc5000" stroke-width="1.00" stroke-linecap="round" fill="none"/><circle cx="0" cy="0" r="0.6" fill="#dc5000" stroke="none"/></g>
<g transform="translate(107.5,80.0)"><circle cx="0" cy="0" r="3.8" stroke="#dc5000" stroke-width="1.00" stroke-linecap="round" fill="none"/><circle cx="0" cy="0" r="0.8" fill="#dc5000" stroke="none"/></g>
<g transform="translate(123.5,73.0)"><circle cx="0" cy="0" r="2.5" stroke="#dc5000" stroke-width="1.00" stroke-linecap="round" fill="none"/><circle cx="0" cy="0" r="0.6" fill="#dc5000" stroke="none"/></g>
<g transform="translate(149.5,96.5)"><line x1="0" y1="-24.5" x2="0" y2="24.5" stroke="#00b400" stroke-width="1.47" stroke-linecap="round" fill="none"/><line x1="-9.5" y1="-10.8" x2="9.5" y2="-3.9" stroke="#00b400" stroke-width="1.47" stroke-linecap="round" fill="none"/><line x1="-9.5" y1="2.5"  x2="9.5" y2="9.3"  stroke="#00b400" stroke-width="1.47" stroke-linecap="round" fill="none"/><line x1="-8.4" y1="24.5" x2="8.4" y2="24.5" stroke="#00b400" stroke-width="1.47" stroke-linecap="round" fill="none"/></g>
<g transform="translate(171.5,96.0)"><line x1="0" y1="-24.0" x2="0" y2="24.0" stroke="#00b400" stroke-width="1.00" stroke-linecap="round" fill="none"/><line x1="-5.0" y1="-10.6" x2="5.0" y2="-3.8" stroke="#00b400" stroke-width="1.00" stroke-linecap="round" fill="none"/><line x1="-5.0" y1="2.4"  x2="5.0" y2="9.1"  stroke="#00b400" stroke-width="1.00" stroke-linecap="round" fill="none"/><line x1="-4.4" y1="24.0" x2="4.4" y2="24.0" stroke="#00b400" stroke-width="1.00" stroke-linecap="round" fill="none"/></g>
<g transform="translate(193.0,96.5)"><line x1="0" y1="-24.5" x2="0" y2="24.5" stroke="#00b400" stroke-width="1.00" stroke-linecap="round" fill="none"/><line x1="-5.4" y1="-10.8" x2="5.4" y2="-3.9" stroke="#00b400" stroke-width="1.00" stroke-linecap="round" fill="none"/><line x1="-5.4" y1="2.5"  x2="5.4" y2="9.3"  stroke="#00b400" stroke-width="1.00" stroke-linecap="round" fill="none"/><line x1="-4.8" y1="24.5" x2="4.8" y2="24.5" stroke="#00b400" stroke-width="1.00" stroke-linecap="round" fill="none"/></g>
<g transform="translate(212.5,96.0)"><line x1="0" y1="-24.0" x2="0" y2="24.0" stroke="#00b400" stroke-width="1.00" stroke-linecap="round" fill="none"/><line x1="-5.0" y1="-10.6" x2="5.0" y2="-3.8" stroke="#00b400" stroke-width="1.00" stroke-linecap="round" fill="none"/><line x1="-5.0" y1="2.4"  x2="5.0" y2="9.1"  stroke="#00b400" stroke-width="1.00" stroke-linecap="round" fill="none"/><line x1="-4.4" y1="24.0" x2="4.4" y2="24.0" stroke="#00b400" stroke-width="1.00" stroke-linecap="round" fill="none"/></g>
<g transform="translate(233.5,96.5)"><line x1="0" y1="-24.5" x2="0" y2="24.5" stroke="#00b400" stroke-width="1.00" stroke-linecap="round" fill="none"/><line x1="-5.0" y1="-10.8" x2="5.0" y2="-3.9" stroke="#00b400" stroke-width="1.00" stroke-linecap="round" fill="none"/><line x1="-5.0" y1="2.5"  x2="5.0" y2="9.3"  stroke="#00b400" stroke-width="1.00" stroke-linecap="round" fill="none"/><line x1="-4.4" y1="24.5" x2="4.4" y2="24.5" stroke="#00b400" stroke-width="1.00" stroke-linecap="round" fill="none"/></g>
<g transform="translate(254.5,96.0)"><line x1="0" y1="-24.0" x2="0" y2="24.0" stroke="#00b400" stroke-width="1.00" stroke-linecap="round" fill="none"/><line x1="-5.9" y1="-10.6" x2="5.9" y2="-3.8" stroke="#00b400" stroke-width="1.00" stroke-linecap="round" fill="none"/><line x1="-5.9" y1="2.4"  x2="5.9" y2="9.1"  stroke="#00b400" stroke-width="1.00" stroke-linecap="round" fill="none"/><line x1="-5.2" y1="24.0" x2="5.2" y2="24.0" stroke="#00b400" stroke-width="1.00" stroke-linecap="round" fill="none"/></g>
<g transform="translate(275.5,96.5)"><line x1="0" y1="-24.5" x2="0" y2="24.5" stroke="#00b400" stroke-width="1.00" stroke-linecap="round" fill="none"/><line x1="-5.0" y1="-10.8" x2="5.0" y2="-3.9" stroke="#00b400" stroke-width="1.00" stroke-linecap="round" fill="none"/><line x1="-5.0" y1="2.5"  x2="5.0" y2="9.3"  stroke="#00b400" stroke-width="1.00" stroke-linecap="round" fill="none"/><line x1="-4.4" y1="24.5" x2="4.4" y2="24.5" stroke="#00b400" stroke-width="1.00" stroke-linecap="round" fill="none"/></g>
<g transform="translate(296.5,97.0)"><line x1="0" y1="-24.0" x2="0" y2="24.0" stroke="#00b400" stroke-width="1.00" stroke-linecap="round" fill="none"/><line x1="-5.9" y1="-10.6" x2="5.9" y2="-3.8" stroke="#00b400" stroke-width="1.00" stroke-linecap="round" fill="none"/><line x1="-5.9" y1="2.4"  x2="5.9" y2="9.1"  stroke="#00b400" stroke-width="1.00" stroke-linecap="round" fill="none"/><line x1="-5.2" y1="24.0" x2="5.2" y2="24.0" stroke="#00b400" stroke-width="1.00" stroke-linecap="round" fill="none"/></g>
<g transform="translate(317.0,97.0)"><line x1="0" y1="-24.0" x2="0" y2="24.0" stroke="#00b400" stroke-width="1.00" stroke-linecap="round" fill="none"/><line x1="-6.3" y1="-10.6" x2="6.3" y2="-3.8" stroke="#00b400" stroke-width="1.00" stroke-linecap="round" fill="none"/><line x1="-6.3" y1="2.4"  x2="6.3" y2="9.1"  stroke="#00b400" stroke-width="1.00" stroke-linecap="round" fill="none"/><line x1="-5.6" y1="24.0" x2="5.6" y2="24.0" stroke="#00b400" stroke-width="1.00" stroke-linecap="round" fill="none"/></g>
<g transform="translate(338.5,97.5)"><line x1="0" y1="-24.5" x2="0" y2="24.5" stroke="#00b400" stroke-width="1.00" stroke-linecap="round" fill="none"/><line x1="-5.9" y1="-10.8" x2="5.9" y2="-3.9" stroke="#00b400" stroke-width="1.00" stroke-linecap="round" fill="none"/><line x1="-5.9" y1="2.5"  x2="5.9" y2="9.3"  stroke="#00b400" stroke-width="1.00" stroke-linecap="round" fill="none"/><line x1="-5.2" y1="24.5" x2="5.2" y2="24.5" stroke="#00b400" stroke-width="1.00" stroke-linecap="round" fill="none"/></g>
<g transform="translate(359.5,97.0)"><line x1="0" y1="-24.0" x2="0" y2="24.0" stroke="#00b400" stroke-width="1.00" stroke-linecap="round" fill="none"/><line x1="-5.9" y1="-10.6" x2="5.9" y2="-3.8" stroke="#00b400" stroke-width="1.00" stroke-linecap="round" fill="none"/><line x1="-5.9" y1="2.4"  x2="5.9" y2="9.1"  stroke="#00b400" stroke-width="1.00" stroke-linecap="round" fill="none"/><line x1="-5.2" y1="24.0" x2="5.2" y2="24.0" stroke="#00b400" stroke-width="1.00" stroke-linecap="round" fill="none"/></g>
<g transform="translate(405.0,74.0)"><circle cx="0" cy="0" r="2.5" stroke="#dc5000" stroke-width="1.00" stroke-linecap="round" fill="none"/><circle cx="0" cy="0" r="0.6" fill="#dc5000" stroke="none"/></g>
<g transform="translate(419.0,78.0)"><circle cx="0" cy="0" r="2.5" stroke="#dc5000" stroke-width="1.00" stroke-linecap="round" fill="none"/><circle cx="0" cy="0" r="0.6" fill="#dc5000" stroke="none"/></g>
<g transform="translate(152.0,145.0)"><circle cx="0" cy="0" r="2.5" stroke="#dc5000" stroke-width="1.00" stroke-linecap="round" fill="none"/><circle cx="0" cy="0" r="0.6" fill="#dc5000" stroke="none"/></g>
<g transform="translate(158.0,132.5)"><circle cx="0" cy="0" r="3.4" stroke="#dc5000" stroke-width="1.00" stroke-linecap="round" fill="none"/><circle cx="0" cy="0" r="0.7" fill="#dc5000" stroke="none"/></g>
<g transform="translate(197.0,149.0)"><circle cx="0" cy="0" r="8.4" stroke="#dc5000" stroke-width="1.40" stroke-linecap="round" fill="none"/><circle cx="0" cy="0" r="1.8" fill="#dc5000" stroke="none"/></g>
<g transform="translate(213.5,147.0)"><line x1="0" y1="-21.0" x2="0" y2="21.0" stroke="#00b400" stroke-width="1.00" stroke-linecap="round" fill="none"/><line x1="-5.0" y1="-9.2" x2="5.0" y2="-3.4" stroke="#00b400" stroke-width="1.00" stroke-linecap="round" fill="none"/><line x1="-5.0" y1="2.1"  x2="5.0" y2="8.0"  stroke="#00b400" stroke-width="1.00" stroke-linecap="round" fill="none"/><line x1="-4.4" y1="21.0" x2="4.4" y2="21.0" stroke="#00b400" stroke-width="1.00" stroke-linecap="round" fill="none"/></g>
<g transform="translate(234.0,147.0)"><line x1="0" y1="-21.0" x2="0" y2="21.0" stroke="#00b400" stroke-width="1.00" stroke-linecap="round" fill="none"/><line x1="-5.4" y1="-9.2" x2="5.4" y2="-3.4" stroke="#00b400" stroke-width="1.00" stroke-linecap="round" fill="none"/><line x1="-5.4" y1="2.1"  x2="5.4" y2="8.0"  stroke="#00b400" stroke-width="1.00" stroke-linecap="round" fill="none"/><line x1="-4.8" y1="21.0" x2="4.8" y2="21.0" stroke="#00b400" stroke-width="1.00" stroke-linecap="round" fill="none"/></g>
<g transform="translate(266.0,127.5)"><circle cx="0" cy="0" r="2.9" stroke="#dc5000" stroke-width="1.00" stroke-linecap="round" fill="none"/><circle cx="0" cy="0" r="0.6" fill="#dc5000" stroke="none"/></g>
<g transform="translate(258.5,127.5)"><circle cx="0" cy="0" r="2.1" stroke="#dc5000" stroke-width="1.00" stroke-linecap="round" fill="none"/><circle cx="0" cy="0" r="0.5" fill="#dc5000" stroke="none"/></g>
<g transform="translate(295.5,147.0)"><line x1="0" y1="-21.0" x2="0" y2="21.0" stroke="#00b400" stroke-width="1.05" stroke-linecap="round" fill="none"/><line x1="-6.8" y1="-9.2" x2="6.8" y2="-3.4" stroke="#00b400" stroke-width="1.05" stroke-linecap="round" fill="none"/><line x1="-6.8" y1="2.1"  x2="6.8" y2="8.0"  stroke="#00b400" stroke-width="1.05" stroke-linecap="round" fill="none"/><line x1="-6.0" y1="21.0" x2="6.0" y2="21.0" stroke="#00b400" stroke-width="1.05" stroke-linecap="round" fill="none"/></g>
<g transform="translate(317.0,147.5)"><line x1="0" y1="-20.5" x2="0" y2="20.5" stroke="#00b400" stroke-width="1.00" stroke-linecap="round" fill="none"/><line x1="-5.4" y1="-9.0" x2="5.4" y2="-3.3" stroke="#00b400" stroke-width="1.00" stroke-linecap="round" fill="none"/><line x1="-5.4" y1="2.1"  x2="5.4" y2="7.8"  stroke="#00b400" stroke-width="1.00" stroke-linecap="round" fill="none"/><line x1="-4.8" y1="20.5" x2="4.8" y2="20.5" stroke="#00b400" stroke-width="1.00" stroke-linecap="round" fill="none"/></g>
<g transform="translate(359.0,127.5)"><circle cx="0" cy="0" r="2.1" stroke="#dc5000" stroke-width="1.00" stroke-linecap="round" fill="none"/><circle cx="0" cy="0" r="0.5" fill="#dc5000" stroke="none"/></g>
<g transform="translate(202.5,192.0)"><circle cx="0" cy="0" r="2.1" stroke="#dc5000" stroke-width="1.00" stroke-linecap="round" fill="none"/><circle cx="0" cy="0" r="0.5" fill="#dc5000" stroke="none"/></g>
<g transform="translate(218.0,175.5)"><circle cx="0" cy="0" r="2.1" stroke="#dc5000" stroke-width="1.00" stroke-linecap="round" fill="none"/><circle cx="0" cy="0" r="0.5" fill="#dc5000" stroke="none"/></g>
<g transform="translate(254.5,195.0)"><line x1="0" y1="-21.0" x2="0" y2="21.0" stroke="#00b400" stroke-width="1.00" stroke-linecap="round" fill="none"/><line x1="-5.9" y1="-9.2" x2="5.9" y2="-3.4" stroke="#00b400" stroke-width="1.00" stroke-linecap="round" fill="none"/><line x1="-5.9" y1="2.1"  x2="5.9" y2="8.0"  stroke="#00b400" stroke-width="1.00" stroke-linecap="round" fill="none"/><line x1="-5.2" y1="21.0" x2="5.2" y2="21.0" stroke="#00b400" stroke-width="1.00" stroke-linecap="round" fill="none"/></g>
<g transform="translate(274.0,195.0)"><line x1="0" y1="-21.0" x2="0" y2="21.0" stroke="#00b400" stroke-width="1.00" stroke-linecap="round" fill="none"/><line x1="-5.4" y1="-9.2" x2="5.4" y2="-3.4" stroke="#00b400" stroke-width="1.00" stroke-linecap="round" fill="none"/><line x1="-5.4" y1="2.1"  x2="5.4" y2="8.0"  stroke="#00b400" stroke-width="1.00" stroke-linecap="round" fill="none"/><line x1="-4.8" y1="21.0" x2="4.8" y2="21.0" stroke="#00b400" stroke-width="1.00" stroke-linecap="round" fill="none"/></g>
<g transform="translate(311.0,175.5)"><circle cx="0" cy="0" r="2.1" stroke="#dc5000" stroke-width="1.00" stroke-linecap="round" fill="none"/><circle cx="0" cy="0" r="0.5" fill="#dc5000" stroke="none"/></g>
<g transform="translate(251.0,241.5)"><circle cx="0" cy="0" r="202.0" stroke="#dc5000" stroke-width="33.67" stroke-linecap="round" fill="none"/><circle cx="0" cy="0" r="44.4" fill="#dc5000" stroke="none"/></g>
<g transform="translate(259.0,232.5)"><circle cx="0" cy="0" r="8.8" stroke="#dc5000" stroke-width="1.47" stroke-linecap="round" fill="none"/><circle cx="0" cy="0" r="1.9" fill="#dc5000" stroke="none"/></g>
</g>
<rect x="8" y="462" width="12" height="12" fill="#00b400" rx="2"/><text x="24" y="472" font-family="sans-serif" font-size="10" fill="#333">treble</text>
<rect x="118" y="462" width="12" height="12" fill="#dc5000" rx="2"/><text x="134" y="472" font-family="sans-serif" font-size="10" fill="#333">slip_stitch</text>
<rect x="228" y="462" width="12" height="12" fill="#0064dc" rx="2"/><text x="244" y="472" font-family="sans-serif" font-size="10" fill="#333">chain</text>
<rect x="338" y="462" width="12" height="12" fill="#b400b4" rx="2"/><text x="354" y="472" font-family="sans-serif" font-size="10" fill="#333">double</text>
</svg>